P3
2 2
75
0 75 35
0 0 0
0 0 0
0 75 35
